<mxfile host="app.diagrams.net" agent="Mozilla/5.0 (Windows NT 10.0; Win64; x64) AppleWebKit/537.36 (KHTML, like Gecko) Chrome/133.0.0.0 Safari/537.36 Edg/133.0.0.0" version="26.0.14" pages="9">
  <diagram id="giHtOCwJ5a9ewSYSu-9f" name="Teste">
    <mxGraphModel dx="2084" dy="1214" grid="1" gridSize="10" guides="1" tooltips="1" connect="1" arrows="1" fold="1" page="1" pageScale="1" pageWidth="827" pageHeight="1169" math="0" shadow="0">
      <root>
        <mxCell id="0" />
        <mxCell id="1" parent="0" />
        <mxCell id="M2YGASF-uCV-Wqf6uXnu-3" value="" style="edgeStyle=orthogonalEdgeStyle;rounded=0;orthogonalLoop=1;jettySize=auto;html=1;strokeColor=#000000;" edge="1" parent="1" target="M2YGASF-uCV-Wqf6uXnu-2">
          <mxGeometry relative="1" as="geometry">
            <mxPoint x="414" y="240" as="sourcePoint" />
          </mxGeometry>
        </mxCell>
        <mxCell id="M2YGASF-uCV-Wqf6uXnu-1" value="&lt;i&gt;&lt;font style=&quot;font-size: 28px;&quot;&gt;início&lt;/font&gt;&lt;/i&gt;" style="strokeWidth=2;html=1;shape=mxgraph.flowchart.start_1;whiteSpace=wrap;fillColor=#ffcccc;strokeColor=#000000;fontFamily=Comic Sans MS;fontColor=default;labelBackgroundColor=none;fontStyle=1;" vertex="1" parent="1">
          <mxGeometry x="339" y="150" width="150" height="100" as="geometry" />
        </mxCell>
        <mxCell id="M2YGASF-uCV-Wqf6uXnu-7" value="" style="edgeStyle=orthogonalEdgeStyle;rounded=0;orthogonalLoop=1;jettySize=auto;html=1;strokeColor=#000000;" edge="1" parent="1" source="M2YGASF-uCV-Wqf6uXnu-2" target="M2YGASF-uCV-Wqf6uXnu-6">
          <mxGeometry relative="1" as="geometry" />
        </mxCell>
        <mxCell id="M2YGASF-uCV-Wqf6uXnu-2" value="&lt;font style=&quot;font-size: 16px;&quot;&gt;recebe o 1° número&lt;/font&gt;" style="shape=parallelogram;perimeter=parallelogramPerimeter;whiteSpace=wrap;html=1;fixedSize=1;fontFamily=Comic Sans MS;fillColor=#ffcc99;strokeColor=#000000;strokeWidth=2;labelBackgroundColor=none;fontStyle=1;" vertex="1" parent="1">
          <mxGeometry x="339" y="280" width="150" height="70" as="geometry" />
        </mxCell>
        <mxCell id="M2YGASF-uCV-Wqf6uXnu-12" value="" style="edgeStyle=orthogonalEdgeStyle;rounded=0;orthogonalLoop=1;jettySize=auto;html=1;strokeColor=#000000;" edge="1" parent="1" source="M2YGASF-uCV-Wqf6uXnu-6" target="M2YGASF-uCV-Wqf6uXnu-11">
          <mxGeometry relative="1" as="geometry" />
        </mxCell>
        <mxCell id="M2YGASF-uCV-Wqf6uXnu-6" value="&lt;font style=&quot;font-size: 16px;&quot; face=&quot;Comic Sans MS&quot;&gt;recebe o 2° número&lt;/font&gt;" style="shape=parallelogram;perimeter=parallelogramPerimeter;whiteSpace=wrap;html=1;fixedSize=1;fontFamily=Comic Sans MS;fillColor=#ffcc99;strokeColor=#000000;strokeWidth=2;labelBackgroundColor=none;fontStyle=1;" vertex="1" parent="1">
          <mxGeometry x="339" y="400" width="150" height="70" as="geometry" />
        </mxCell>
        <mxCell id="M2YGASF-uCV-Wqf6uXnu-14" value="" style="edgeStyle=orthogonalEdgeStyle;rounded=0;orthogonalLoop=1;jettySize=auto;html=1;strokeColor=#000000;" edge="1" parent="1" source="M2YGASF-uCV-Wqf6uXnu-11" target="M2YGASF-uCV-Wqf6uXnu-13">
          <mxGeometry relative="1" as="geometry" />
        </mxCell>
        <mxCell id="M2YGASF-uCV-Wqf6uXnu-11" value="&lt;font face=&quot;Comic Sans MS&quot; style=&quot;font-size: 16px;&quot;&gt;&lt;span style=&quot;&quot;&gt;realizar a soma dos números obtidos&lt;/span&gt;&lt;/font&gt;" style="rounded=1;whiteSpace=wrap;html=1;absoluteArcSize=1;arcSize=14;strokeWidth=2;fillColor=#fff2cc;strokeColor=#000000;gradientColor=#ffd966;fontStyle=1;" vertex="1" parent="1">
          <mxGeometry x="339" y="510" width="150" height="90" as="geometry" />
        </mxCell>
        <mxCell id="M2YGASF-uCV-Wqf6uXnu-16" value="" style="edgeStyle=orthogonalEdgeStyle;rounded=0;orthogonalLoop=1;jettySize=auto;html=1;strokeColor=#000000;" edge="1" parent="1" source="M2YGASF-uCV-Wqf6uXnu-13" target="M2YGASF-uCV-Wqf6uXnu-15">
          <mxGeometry relative="1" as="geometry" />
        </mxCell>
        <mxCell id="M2YGASF-uCV-Wqf6uXnu-13" value="&lt;b&gt;&lt;font style=&quot;font-size: 16px;&quot; face=&quot;Comic Sans MS&quot;&gt;exibir resultado da soma&lt;/font&gt;&lt;/b&gt;" style="strokeWidth=2;html=1;shape=mxgraph.flowchart.display;whiteSpace=wrap;fillColor=#ffcd28;strokeColor=#000000;gradientColor=#ffa500;" vertex="1" parent="1">
          <mxGeometry x="339" y="645" width="150" height="80" as="geometry" />
        </mxCell>
        <mxCell id="M2YGASF-uCV-Wqf6uXnu-15" value="&lt;b style=&quot;&quot;&gt;&lt;font style=&quot;font-size: 16px;&quot; face=&quot;Comic Sans MS&quot;&gt;fim&lt;/font&gt;&lt;/b&gt;" style="strokeWidth=2;html=1;shape=mxgraph.flowchart.terminator;whiteSpace=wrap;fillColor=#f8cecc;gradientColor=#ea6b66;strokeColor=#000000;" vertex="1" parent="1">
          <mxGeometry x="344" y="760" width="140" height="70" as="geometry" />
        </mxCell>
      </root>
    </mxGraphModel>
  </diagram>
  <diagram id="Az89UfM1rf8Ij7mHqItw" name="Triângulo ">
    <mxGraphModel dx="2084" dy="1214" grid="1" gridSize="10" guides="1" tooltips="1" connect="1" arrows="1" fold="1" page="1" pageScale="1" pageWidth="827" pageHeight="1169" math="0" shadow="0">
      <root>
        <mxCell id="0" />
        <mxCell id="1" parent="0" />
        <mxCell id="4yb7ywblyNISPYpPHfpu-2" value="" style="edgeStyle=orthogonalEdgeStyle;rounded=0;orthogonalLoop=1;jettySize=auto;html=1;strokeColor=#000000;" edge="1" parent="1" target="4yb7ywblyNISPYpPHfpu-1">
          <mxGeometry relative="1" as="geometry">
            <mxPoint x="405" y="265" as="sourcePoint" />
          </mxGeometry>
        </mxCell>
        <mxCell id="0LxlurE3gbQQGoxpAnZv-1" value="&lt;b&gt;&lt;font face=&quot;Comic Sans MS&quot;&gt;início&lt;/font&gt;&lt;/b&gt;" style="strokeWidth=2;html=1;shape=mxgraph.flowchart.start_1;whiteSpace=wrap;fontSize=22;fillColor=#ffcccc;strokeColor=#000000;" vertex="1" parent="1">
          <mxGeometry x="330" y="170" width="150" height="100" as="geometry" />
        </mxCell>
        <mxCell id="kzt4PcksKlsbSTSAgP7g-2" value="" style="edgeStyle=orthogonalEdgeStyle;rounded=0;orthogonalLoop=1;jettySize=auto;html=1;strokeColor=#000000;" edge="1" parent="1" source="4yb7ywblyNISPYpPHfpu-1" target="kzt4PcksKlsbSTSAgP7g-1">
          <mxGeometry relative="1" as="geometry" />
        </mxCell>
        <mxCell id="4yb7ywblyNISPYpPHfpu-1" value="&lt;font&gt;obtenha o valor da base do triângulo&lt;/font&gt;" style="shape=parallelogram;perimeter=parallelogramPerimeter;whiteSpace=wrap;html=1;fixedSize=1;strokeWidth=2;fontStyle=1;fontFamily=Comic Sans MS;fontSize=16;fillColor=#fad7ac;strokeColor=#000000;" vertex="1" parent="1">
          <mxGeometry x="320" y="305" width="170" height="80" as="geometry" />
        </mxCell>
        <mxCell id="90fB3Haxta0exNKC9Dqi-2" value="" style="edgeStyle=orthogonalEdgeStyle;rounded=0;orthogonalLoop=1;jettySize=auto;html=1;strokeColor=#000000;" edge="1" parent="1" source="kzt4PcksKlsbSTSAgP7g-1" target="90fB3Haxta0exNKC9Dqi-1">
          <mxGeometry relative="1" as="geometry" />
        </mxCell>
        <mxCell id="kzt4PcksKlsbSTSAgP7g-1" value="obtenha o valor da altura do triângulo" style="shape=parallelogram;perimeter=parallelogramPerimeter;whiteSpace=wrap;html=1;fixedSize=1;fontSize=16;fontFamily=Comic Sans MS;strokeWidth=2;fontStyle=1;fillColor=#fad7ac;strokeColor=#000000;" vertex="1" parent="1">
          <mxGeometry x="321.25" y="425" width="167.5" height="80" as="geometry" />
        </mxCell>
        <mxCell id="8Q1VEvpKK8KX-cQfTTZg-2" value="" style="edgeStyle=orthogonalEdgeStyle;rounded=0;orthogonalLoop=1;jettySize=auto;html=1;strokeColor=#000000;" edge="1" parent="1" source="90fB3Haxta0exNKC9Dqi-1" target="vLx9eM8FvuSh_LsCiSsF-5">
          <mxGeometry relative="1" as="geometry" />
        </mxCell>
        <mxCell id="90fB3Haxta0exNKC9Dqi-1" value="&lt;b&gt;&lt;font style=&quot;font-size: 16px;&quot; face=&quot;Comic Sans MS&quot;&gt;calcular a área, com os números obtidos&lt;/font&gt;&lt;/b&gt;" style="rounded=1;whiteSpace=wrap;html=1;absoluteArcSize=1;arcSize=14;strokeWidth=2;fillColor=#fff2cc;gradientColor=#ffd966;strokeColor=#000000;" vertex="1" parent="1">
          <mxGeometry x="320" y="535" width="170" height="100" as="geometry" />
        </mxCell>
        <mxCell id="tskNI-3VWBgqSMky2tKQ-3" value="" style="edgeStyle=orthogonalEdgeStyle;rounded=0;orthogonalLoop=1;jettySize=auto;html=1;strokeColor=#000000;" edge="1" parent="1" source="vLx9eM8FvuSh_LsCiSsF-5" target="tskNI-3VWBgqSMky2tKQ-1">
          <mxGeometry relative="1" as="geometry" />
        </mxCell>
        <mxCell id="vLx9eM8FvuSh_LsCiSsF-5" value="&lt;font style=&quot;font-size: 16px;&quot; face=&quot;Comic Sans MS&quot;&gt;&lt;b style=&quot;&quot;&gt;exibir resultado da multiplicação&lt;/b&gt;&lt;/font&gt;" style="strokeWidth=2;html=1;shape=mxgraph.flowchart.display;whiteSpace=wrap;fillColor=#ffcd28;gradientColor=#ffa500;strokeColor=#000000;" vertex="1" parent="1">
          <mxGeometry x="310" y="665" width="190" height="110" as="geometry" />
        </mxCell>
        <mxCell id="tskNI-3VWBgqSMky2tKQ-1" value="&lt;b&gt;&lt;font face=&quot;Comic Sans MS&quot; style=&quot;font-size: 22px;&quot;&gt;fim&lt;/font&gt;&lt;/b&gt;" style="strokeWidth=2;html=1;shape=mxgraph.flowchart.start_1;whiteSpace=wrap;fillColor=#f8cecc;gradientColor=#ea6b66;strokeColor=#000000;" vertex="1" parent="1">
          <mxGeometry x="315" y="815" width="180" height="90" as="geometry" />
        </mxCell>
      </root>
    </mxGraphModel>
  </diagram>
  <diagram id="iXKXUuulnx_gGz6qI2rF" name="Dobro n°">
    <mxGraphModel dx="1158" dy="674" grid="1" gridSize="10" guides="1" tooltips="1" connect="1" arrows="1" fold="1" page="1" pageScale="1" pageWidth="827" pageHeight="1169" math="0" shadow="0">
      <root>
        <mxCell id="0" />
        <mxCell id="1" parent="0" />
        <mxCell id="k3ilzrlp6FyDNYwjGLL5-1" value="" style="edgeStyle=orthogonalEdgeStyle;rounded=0;orthogonalLoop=1;jettySize=auto;html=1;strokeColor=#000000;" edge="1" target="k3ilzrlp6FyDNYwjGLL5-4" parent="1">
          <mxGeometry relative="1" as="geometry">
            <mxPoint x="413" y="312" as="sourcePoint" />
          </mxGeometry>
        </mxCell>
        <mxCell id="k3ilzrlp6FyDNYwjGLL5-2" value="&lt;b&gt;&lt;font face=&quot;Comic Sans MS&quot;&gt;início&lt;/font&gt;&lt;/b&gt;" style="strokeWidth=2;html=1;shape=mxgraph.flowchart.start_1;whiteSpace=wrap;fontSize=22;fillColor=#ffcccc;strokeColor=#000000;" vertex="1" parent="1">
          <mxGeometry x="338" y="217" width="150" height="100" as="geometry" />
        </mxCell>
        <mxCell id="6341VoSddWa05cygfCZh-2" value="" style="edgeStyle=orthogonalEdgeStyle;rounded=0;orthogonalLoop=1;jettySize=auto;html=1;strokeColor=#000000;" edge="1" parent="1" source="k3ilzrlp6FyDNYwjGLL5-4" target="6341VoSddWa05cygfCZh-1">
          <mxGeometry relative="1" as="geometry" />
        </mxCell>
        <mxCell id="k3ilzrlp6FyDNYwjGLL5-4" value="obtenha um número" style="shape=parallelogram;perimeter=parallelogramPerimeter;whiteSpace=wrap;html=1;fixedSize=1;strokeWidth=2;fontStyle=1;fontFamily=Comic Sans MS;fontSize=16;fillColor=#fad7ac;strokeColor=#000000;" vertex="1" parent="1">
          <mxGeometry x="328" y="352" width="170" height="80" as="geometry" />
        </mxCell>
        <mxCell id="k3ilzrlp6FyDNYwjGLL5-5" value="" style="edgeStyle=orthogonalEdgeStyle;rounded=0;orthogonalLoop=1;jettySize=auto;html=1;strokeColor=#000000;" edge="1" target="k3ilzrlp6FyDNYwjGLL5-8" parent="1">
          <mxGeometry relative="1" as="geometry">
            <mxPoint x="413" y="552" as="sourcePoint" />
          </mxGeometry>
        </mxCell>
        <mxCell id="k3ilzrlp6FyDNYwjGLL5-7" value="" style="edgeStyle=orthogonalEdgeStyle;rounded=0;orthogonalLoop=1;jettySize=auto;html=1;strokeColor=#000000;" edge="1" source="k3ilzrlp6FyDNYwjGLL5-8" target="k3ilzrlp6FyDNYwjGLL5-10" parent="1">
          <mxGeometry relative="1" as="geometry" />
        </mxCell>
        <mxCell id="k3ilzrlp6FyDNYwjGLL5-8" value="&lt;font face=&quot;Comic Sans MS&quot;&gt;&lt;span style=&quot;font-size: 16px;&quot;&gt;&lt;b&gt;calcule a metade do número&lt;/b&gt;&lt;/span&gt;&lt;/font&gt;" style="rounded=1;whiteSpace=wrap;html=1;absoluteArcSize=1;arcSize=14;strokeWidth=2;fillColor=#fff2cc;gradientColor=#ffd966;strokeColor=#000000;" vertex="1" parent="1">
          <mxGeometry x="328" y="600" width="170" height="100" as="geometry" />
        </mxCell>
        <mxCell id="k3ilzrlp6FyDNYwjGLL5-9" value="" style="edgeStyle=orthogonalEdgeStyle;rounded=0;orthogonalLoop=1;jettySize=auto;html=1;strokeColor=#000000;" edge="1" source="k3ilzrlp6FyDNYwjGLL5-10" target="k3ilzrlp6FyDNYwjGLL5-11" parent="1">
          <mxGeometry relative="1" as="geometry" />
        </mxCell>
        <mxCell id="k3ilzrlp6FyDNYwjGLL5-10" value="&lt;font style=&quot;font-size: 16px;&quot; face=&quot;Comic Sans MS&quot;&gt;&lt;b style=&quot;&quot;&gt;exibir o dobro e a metade do valor&lt;/b&gt;&lt;/font&gt;" style="strokeWidth=2;html=1;shape=mxgraph.flowchart.display;whiteSpace=wrap;fillColor=#ffcd28;gradientColor=#ffa500;strokeColor=#000000;" vertex="1" parent="1">
          <mxGeometry x="318" y="730" width="190" height="110" as="geometry" />
        </mxCell>
        <mxCell id="k3ilzrlp6FyDNYwjGLL5-11" value="&lt;b&gt;&lt;font face=&quot;Comic Sans MS&quot; style=&quot;font-size: 22px;&quot;&gt;fim&lt;/font&gt;&lt;/b&gt;" style="strokeWidth=2;html=1;shape=mxgraph.flowchart.start_1;whiteSpace=wrap;fillColor=#f8cecc;gradientColor=#ea6b66;strokeColor=#000000;" vertex="1" parent="1">
          <mxGeometry x="323" y="870" width="180" height="90" as="geometry" />
        </mxCell>
        <mxCell id="6341VoSddWa05cygfCZh-1" value="&lt;font face=&quot;Comic Sans MS&quot;&gt;&lt;span style=&quot;font-size: 16px;&quot;&gt;&lt;b&gt;calcule o dobro do número&lt;/b&gt;&lt;/span&gt;&lt;/font&gt;" style="rounded=1;whiteSpace=wrap;html=1;absoluteArcSize=1;arcSize=14;strokeWidth=2;fillColor=#fff2cc;gradientColor=#ffd966;strokeColor=#000000;" vertex="1" parent="1">
          <mxGeometry x="328" y="470" width="170" height="100" as="geometry" />
        </mxCell>
      </root>
    </mxGraphModel>
  </diagram>
  <diagram id="nmz9eWdu8ZQE8ZkwoPJ9" name="Decisão">
    <mxGraphModel dx="2007" dy="1124" grid="1" gridSize="10" guides="1" tooltips="1" connect="1" arrows="1" fold="1" page="1" pageScale="1" pageWidth="827" pageHeight="1169" math="0" shadow="0">
      <root>
        <mxCell id="0" />
        <mxCell id="1" parent="0" />
        <mxCell id="FsF3DVznaqC2ILR7vFMX-1" value="" style="edgeStyle=orthogonalEdgeStyle;rounded=0;orthogonalLoop=1;jettySize=auto;html=1;strokeColor=#000000;" parent="1" target="FsF3DVznaqC2ILR7vFMX-4" edge="1">
          <mxGeometry relative="1" as="geometry">
            <mxPoint x="408" y="195" as="sourcePoint" />
          </mxGeometry>
        </mxCell>
        <mxCell id="FsF3DVznaqC2ILR7vFMX-2" value="&lt;b&gt;&lt;font face=&quot;Comic Sans MS&quot;&gt;início&lt;/font&gt;&lt;/b&gt;" style="strokeWidth=2;html=1;shape=mxgraph.flowchart.start_1;whiteSpace=wrap;fontSize=22;fillColor=#ffcccc;strokeColor=#000000;" parent="1" vertex="1">
          <mxGeometry x="333" y="100" width="150" height="100" as="geometry" />
        </mxCell>
        <mxCell id="FsF3DVznaqC2ILR7vFMX-3" value="" style="edgeStyle=orthogonalEdgeStyle;rounded=0;orthogonalLoop=1;jettySize=auto;html=1;strokeColor=#000000;" parent="1" source="FsF3DVznaqC2ILR7vFMX-4" target="FsF3DVznaqC2ILR7vFMX-6" edge="1">
          <mxGeometry relative="1" as="geometry" />
        </mxCell>
        <mxCell id="FsF3DVznaqC2ILR7vFMX-4" value="&lt;font&gt;obtenha 1° nota&lt;/font&gt;" style="shape=parallelogram;perimeter=parallelogramPerimeter;whiteSpace=wrap;html=1;fixedSize=1;strokeWidth=2;fontStyle=1;fontFamily=Comic Sans MS;fontSize=16;fillColor=#fad7ac;strokeColor=#000000;" parent="1" vertex="1">
          <mxGeometry x="323" y="235" width="170" height="80" as="geometry" />
        </mxCell>
        <mxCell id="FsF3DVznaqC2ILR7vFMX-5" value="" style="edgeStyle=orthogonalEdgeStyle;rounded=0;orthogonalLoop=1;jettySize=auto;html=1;strokeColor=#000000;" parent="1" source="FsF3DVznaqC2ILR7vFMX-6" target="FsF3DVznaqC2ILR7vFMX-8" edge="1">
          <mxGeometry relative="1" as="geometry" />
        </mxCell>
        <mxCell id="FsF3DVznaqC2ILR7vFMX-6" value="obtenha 2° nota" style="shape=parallelogram;perimeter=parallelogramPerimeter;whiteSpace=wrap;html=1;fixedSize=1;fontSize=16;fontFamily=Comic Sans MS;strokeWidth=2;fontStyle=1;fillColor=#fad7ac;strokeColor=#000000;" parent="1" vertex="1">
          <mxGeometry x="324.25" y="355" width="167.5" height="80" as="geometry" />
        </mxCell>
        <mxCell id="FsF3DVznaqC2ILR7vFMX-14" value="" style="edgeStyle=orthogonalEdgeStyle;rounded=0;orthogonalLoop=1;jettySize=auto;html=1;" parent="1" source="FsF3DVznaqC2ILR7vFMX-8" target="FsF3DVznaqC2ILR7vFMX-13" edge="1">
          <mxGeometry relative="1" as="geometry" />
        </mxCell>
        <mxCell id="FsF3DVznaqC2ILR7vFMX-8" value="&lt;font face=&quot;Comic Sans MS&quot;&gt;&lt;span style=&quot;font-size: 16px;&quot;&gt;&lt;b&gt;calcule a média&lt;/b&gt;&lt;/span&gt;&lt;/font&gt;" style="rounded=1;whiteSpace=wrap;html=1;absoluteArcSize=1;arcSize=14;strokeWidth=2;fillColor=#fff2cc;gradientColor=#ffd966;strokeColor=#000000;" parent="1" vertex="1">
          <mxGeometry x="323" y="465" width="170" height="100" as="geometry" />
        </mxCell>
        <mxCell id="FsF3DVznaqC2ILR7vFMX-16" value="" style="edgeStyle=orthogonalEdgeStyle;rounded=0;orthogonalLoop=1;jettySize=auto;html=1;" parent="1" source="FsF3DVznaqC2ILR7vFMX-13" target="FsF3DVznaqC2ILR7vFMX-15" edge="1">
          <mxGeometry relative="1" as="geometry" />
        </mxCell>
        <mxCell id="FsF3DVznaqC2ILR7vFMX-17" value="SIM" style="edgeLabel;html=1;align=center;verticalAlign=middle;resizable=0;points=[];" parent="FsF3DVznaqC2ILR7vFMX-16" vertex="1" connectable="0">
          <mxGeometry x="-0.5839" y="-2" relative="1" as="geometry">
            <mxPoint as="offset" />
          </mxGeometry>
        </mxCell>
        <mxCell id="FsF3DVznaqC2ILR7vFMX-19" value="" style="edgeStyle=orthogonalEdgeStyle;rounded=0;orthogonalLoop=1;jettySize=auto;html=1;" parent="1" source="FsF3DVznaqC2ILR7vFMX-13" target="FsF3DVznaqC2ILR7vFMX-18" edge="1">
          <mxGeometry relative="1" as="geometry" />
        </mxCell>
        <mxCell id="FsF3DVznaqC2ILR7vFMX-20" value="NÃO" style="edgeLabel;html=1;align=center;verticalAlign=middle;resizable=0;points=[];" parent="FsF3DVznaqC2ILR7vFMX-19" vertex="1" connectable="0">
          <mxGeometry x="-0.4658" y="-3" relative="1" as="geometry">
            <mxPoint as="offset" />
          </mxGeometry>
        </mxCell>
        <mxCell id="FsF3DVznaqC2ILR7vFMX-13" value="&lt;font style=&quot;font-size: 14px;&quot; face=&quot;Comic Sans MS&quot;&gt;&lt;b style=&quot;&quot;&gt;média é acima de 7?&lt;/b&gt;&lt;/font&gt;" style="strokeWidth=2;html=1;shape=mxgraph.flowchart.decision;whiteSpace=wrap;fillColor=#f5f5f5;gradientColor=#b3b3b3;strokeColor=#666666;" parent="1" vertex="1">
          <mxGeometry x="324" y="603" width="170" height="120" as="geometry" />
        </mxCell>
        <mxCell id="lmtNI-7SjCmF-4Mc-A8r-2" value="" style="edgeStyle=orthogonalEdgeStyle;rounded=0;orthogonalLoop=1;jettySize=auto;html=1;" parent="1" source="FsF3DVznaqC2ILR7vFMX-15" target="WImjqgah04b66p2V9R4N-1" edge="1">
          <mxGeometry relative="1" as="geometry" />
        </mxCell>
        <mxCell id="FsF3DVznaqC2ILR7vFMX-15" value="&lt;b&gt;&lt;font style=&quot;font-size: 16px;&quot; face=&quot;Comic Sans MS&quot;&gt;exibir aprovado&lt;/font&gt;&lt;/b&gt;" style="strokeWidth=2;html=1;shape=mxgraph.flowchart.display;whiteSpace=wrap;fillColor=#e6d0de;gradientColor=#d5739d;strokeColor=#996185;" parent="1" vertex="1">
          <mxGeometry x="504" y="733" width="150" height="80" as="geometry" />
        </mxCell>
        <mxCell id="lmtNI-7SjCmF-4Mc-A8r-1" value="" style="edgeStyle=orthogonalEdgeStyle;rounded=0;orthogonalLoop=1;jettySize=auto;html=1;" parent="1" source="FsF3DVznaqC2ILR7vFMX-18" target="WImjqgah04b66p2V9R4N-1" edge="1">
          <mxGeometry relative="1" as="geometry" />
        </mxCell>
        <mxCell id="FsF3DVznaqC2ILR7vFMX-18" value="&lt;b&gt;&lt;font style=&quot;font-size: 16px;&quot; face=&quot;Comic Sans MS&quot;&gt;exibir reprovado&lt;/font&gt;&lt;/b&gt;" style="strokeWidth=2;html=1;shape=mxgraph.flowchart.display;whiteSpace=wrap;fillColor=#e6d0de;gradientColor=#d5739d;strokeColor=#996185;" parent="1" vertex="1">
          <mxGeometry x="173" y="733" width="150" height="80" as="geometry" />
        </mxCell>
        <mxCell id="WImjqgah04b66p2V9R4N-1" value="&lt;b&gt;&lt;font style=&quot;font-size: 16px;&quot; face=&quot;Comic Sans MS&quot;&gt;fim&lt;/font&gt;&lt;/b&gt;" style="strokeWidth=2;html=1;shape=mxgraph.flowchart.terminator;whiteSpace=wrap;fillColor=#f8cecc;gradientColor=#ea6b66;strokeColor=#b85450;" parent="1" vertex="1">
          <mxGeometry x="343" y="813" width="140" height="60" as="geometry" />
        </mxCell>
      </root>
    </mxGraphModel>
  </diagram>
  <diagram id="7DWcDtgQeV_MPAmTgt-Z" name="Exercício.1">
    <mxGraphModel dx="1895" dy="1042" grid="1" gridSize="10" guides="1" tooltips="1" connect="1" arrows="1" fold="1" page="1" pageScale="1" pageWidth="827" pageHeight="1169" math="0" shadow="0">
      <root>
        <mxCell id="0" />
        <mxCell id="1" parent="0" />
        <mxCell id="Udv1sZxQ08-6z9nl2N6P-1" value="" style="edgeStyle=orthogonalEdgeStyle;rounded=0;orthogonalLoop=1;jettySize=auto;html=1;strokeColor=#000000;" edge="1" parent="1" target="Udv1sZxQ08-6z9nl2N6P-4">
          <mxGeometry relative="1" as="geometry">
            <mxPoint x="400" y="430" as="sourcePoint" />
          </mxGeometry>
        </mxCell>
        <mxCell id="Udv1sZxQ08-6z9nl2N6P-2" value="&lt;b&gt;&lt;font face=&quot;Comic Sans MS&quot;&gt;início&lt;/font&gt;&lt;/b&gt;" style="strokeWidth=2;html=1;shape=mxgraph.flowchart.start_1;whiteSpace=wrap;fontSize=22;fillColor=#ffcccc;strokeColor=#000000;" vertex="1" parent="1">
          <mxGeometry x="325" y="335" width="150" height="100" as="geometry" />
        </mxCell>
        <mxCell id="Udv1sZxQ08-6z9nl2N6P-4" value="&lt;font&gt;obtenha um n°&lt;/font&gt;" style="shape=parallelogram;perimeter=parallelogramPerimeter;whiteSpace=wrap;html=1;fixedSize=1;strokeWidth=2;fontStyle=1;fontFamily=Comic Sans MS;fontSize=16;fillColor=#fad7ac;strokeColor=#000000;" vertex="1" parent="1">
          <mxGeometry x="315" y="470" width="170" height="80" as="geometry" />
        </mxCell>
        <mxCell id="Udv1sZxQ08-6z9nl2N6P-7" value="" style="edgeStyle=orthogonalEdgeStyle;rounded=0;orthogonalLoop=1;jettySize=auto;html=1;" edge="1" parent="1" target="Udv1sZxQ08-6z9nl2N6P-13">
          <mxGeometry relative="1" as="geometry">
            <mxPoint x="400" y="550" as="sourcePoint" />
          </mxGeometry>
        </mxCell>
        <mxCell id="Udv1sZxQ08-6z9nl2N6P-11" value="" style="edgeStyle=orthogonalEdgeStyle;rounded=0;orthogonalLoop=1;jettySize=auto;html=1;" edge="1" parent="1" source="Udv1sZxQ08-6z9nl2N6P-13" target="Udv1sZxQ08-6z9nl2N6P-17">
          <mxGeometry relative="1" as="geometry" />
        </mxCell>
        <mxCell id="Udv1sZxQ08-6z9nl2N6P-12" value="NÃO" style="edgeLabel;html=1;align=center;verticalAlign=middle;resizable=0;points=[];" vertex="1" connectable="0" parent="Udv1sZxQ08-6z9nl2N6P-11">
          <mxGeometry x="-0.4658" y="-3" relative="1" as="geometry">
            <mxPoint as="offset" />
          </mxGeometry>
        </mxCell>
        <mxCell id="Udv1sZxQ08-6z9nl2N6P-22" value="SIM" style="edgeStyle=orthogonalEdgeStyle;rounded=0;orthogonalLoop=1;jettySize=auto;html=1;" edge="1" parent="1" source="Udv1sZxQ08-6z9nl2N6P-13" target="Udv1sZxQ08-6z9nl2N6P-15">
          <mxGeometry relative="1" as="geometry">
            <Array as="points">
              <mxPoint x="600" y="637" />
            </Array>
          </mxGeometry>
        </mxCell>
        <mxCell id="Udv1sZxQ08-6z9nl2N6P-13" value="&lt;font style=&quot;font-size: 16px;&quot; face=&quot;Comic Sans MS&quot;&gt;&lt;b style=&quot;&quot;&gt;o número exibido é par?&lt;/b&gt;&lt;/font&gt;" style="strokeWidth=2;html=1;shape=mxgraph.flowchart.decision;whiteSpace=wrap;fillColor=#f5f5f5;gradientColor=#b3b3b3;strokeColor=#666666;" vertex="1" parent="1">
          <mxGeometry x="316" y="565" width="186" height="143" as="geometry" />
        </mxCell>
        <mxCell id="Udv1sZxQ08-6z9nl2N6P-25" value="" style="edgeStyle=orthogonalEdgeStyle;rounded=0;orthogonalLoop=1;jettySize=auto;html=1;" edge="1" parent="1" source="Udv1sZxQ08-6z9nl2N6P-15" target="Udv1sZxQ08-6z9nl2N6P-18">
          <mxGeometry relative="1" as="geometry">
            <Array as="points">
              <mxPoint x="520" y="805" />
            </Array>
          </mxGeometry>
        </mxCell>
        <mxCell id="Udv1sZxQ08-6z9nl2N6P-15" value="&lt;font face=&quot;Comic Sans MS&quot;&gt;&lt;span style=&quot;font-size: 16px;&quot;&gt;&lt;b&gt;exibir número par&lt;/b&gt;&lt;/span&gt;&lt;/font&gt;" style="strokeWidth=2;html=1;shape=mxgraph.flowchart.display;whiteSpace=wrap;fillColor=#e6d0de;gradientColor=#d5739d;strokeColor=#996185;" vertex="1" parent="1">
          <mxGeometry x="512" y="718" width="150" height="80" as="geometry" />
        </mxCell>
        <mxCell id="Udv1sZxQ08-6z9nl2N6P-24" value="" style="edgeStyle=orthogonalEdgeStyle;rounded=0;orthogonalLoop=1;jettySize=auto;html=1;" edge="1" parent="1" source="Udv1sZxQ08-6z9nl2N6P-17" target="Udv1sZxQ08-6z9nl2N6P-18">
          <mxGeometry relative="1" as="geometry">
            <Array as="points">
              <mxPoint x="310" y="805" />
            </Array>
          </mxGeometry>
        </mxCell>
        <mxCell id="Udv1sZxQ08-6z9nl2N6P-17" value="&lt;font face=&quot;Comic Sans MS&quot;&gt;&lt;span style=&quot;font-size: 16px;&quot;&gt;&lt;b&gt;exibir número ímpar&lt;/b&gt;&lt;/span&gt;&lt;/font&gt;" style="strokeWidth=2;html=1;shape=mxgraph.flowchart.display;whiteSpace=wrap;fillColor=#e6d0de;gradientColor=#d5739d;strokeColor=#996185;" vertex="1" parent="1">
          <mxGeometry x="165" y="718" width="150" height="80" as="geometry" />
        </mxCell>
        <mxCell id="Udv1sZxQ08-6z9nl2N6P-18" value="&lt;b&gt;&lt;font style=&quot;font-size: 16px;&quot; face=&quot;Comic Sans MS&quot;&gt;fim&lt;/font&gt;&lt;/b&gt;" style="strokeWidth=2;html=1;shape=mxgraph.flowchart.terminator;whiteSpace=wrap;fillColor=#f8cecc;gradientColor=#ea6b66;strokeColor=#b85450;" vertex="1" parent="1">
          <mxGeometry x="345" y="775" width="140" height="60" as="geometry" />
        </mxCell>
      </root>
    </mxGraphModel>
  </diagram>
  <diagram id="fiJMqcLGWIhxm0gZlBeE" name=".2">
    <mxGraphModel dx="1737" dy="955" grid="1" gridSize="10" guides="1" tooltips="1" connect="1" arrows="1" fold="1" page="1" pageScale="1" pageWidth="827" pageHeight="1169" math="0" shadow="0">
      <root>
        <mxCell id="0" />
        <mxCell id="1" parent="0" />
        <mxCell id="1eAoLEV-bFRT9HMZgJqJ-1" value="" style="edgeStyle=orthogonalEdgeStyle;rounded=0;orthogonalLoop=1;jettySize=auto;html=1;strokeColor=#000000;" edge="1" parent="1" target="1eAoLEV-bFRT9HMZgJqJ-3">
          <mxGeometry relative="1" as="geometry">
            <mxPoint x="400" y="430" as="sourcePoint" />
          </mxGeometry>
        </mxCell>
        <mxCell id="1eAoLEV-bFRT9HMZgJqJ-2" value="&lt;b&gt;&lt;font face=&quot;Comic Sans MS&quot;&gt;início&lt;/font&gt;&lt;/b&gt;" style="strokeWidth=2;html=1;shape=mxgraph.flowchart.start_1;whiteSpace=wrap;fontSize=22;fillColor=#ffcccc;strokeColor=#000000;" vertex="1" parent="1">
          <mxGeometry x="325" y="335" width="150" height="100" as="geometry" />
        </mxCell>
        <mxCell id="1eAoLEV-bFRT9HMZgJqJ-3" value="obter idade da pessoa" style="shape=parallelogram;perimeter=parallelogramPerimeter;whiteSpace=wrap;html=1;fixedSize=1;strokeWidth=2;fontStyle=1;fontFamily=Comic Sans MS;fontSize=16;fillColor=#fad7ac;strokeColor=#000000;" vertex="1" parent="1">
          <mxGeometry x="315" y="470" width="170" height="80" as="geometry" />
        </mxCell>
        <mxCell id="1eAoLEV-bFRT9HMZgJqJ-4" value="" style="edgeStyle=orthogonalEdgeStyle;rounded=0;orthogonalLoop=1;jettySize=auto;html=1;" edge="1" parent="1" target="1eAoLEV-bFRT9HMZgJqJ-8">
          <mxGeometry relative="1" as="geometry">
            <mxPoint x="400" y="550" as="sourcePoint" />
          </mxGeometry>
        </mxCell>
        <mxCell id="1eAoLEV-bFRT9HMZgJqJ-5" value="" style="edgeStyle=orthogonalEdgeStyle;rounded=0;orthogonalLoop=1;jettySize=auto;html=1;" edge="1" parent="1" source="1eAoLEV-bFRT9HMZgJqJ-8" target="1eAoLEV-bFRT9HMZgJqJ-12">
          <mxGeometry relative="1" as="geometry" />
        </mxCell>
        <mxCell id="1eAoLEV-bFRT9HMZgJqJ-6" value="NÃO" style="edgeLabel;html=1;align=center;verticalAlign=middle;resizable=0;points=[];" vertex="1" connectable="0" parent="1eAoLEV-bFRT9HMZgJqJ-5">
          <mxGeometry x="-0.4658" y="-3" relative="1" as="geometry">
            <mxPoint as="offset" />
          </mxGeometry>
        </mxCell>
        <mxCell id="1eAoLEV-bFRT9HMZgJqJ-7" value="SIM" style="edgeStyle=orthogonalEdgeStyle;rounded=0;orthogonalLoop=1;jettySize=auto;html=1;" edge="1" parent="1" source="1eAoLEV-bFRT9HMZgJqJ-8" target="1eAoLEV-bFRT9HMZgJqJ-10">
          <mxGeometry relative="1" as="geometry">
            <Array as="points">
              <mxPoint x="600" y="637" />
            </Array>
          </mxGeometry>
        </mxCell>
        <mxCell id="1eAoLEV-bFRT9HMZgJqJ-8" value="&lt;font face=&quot;Comic Sans MS&quot;&gt;&lt;span style=&quot;font-size: 16px;&quot;&gt;&lt;b&gt;a idade é maior ou igual a 18?&lt;/b&gt;&lt;/span&gt;&lt;/font&gt;" style="strokeWidth=2;html=1;shape=mxgraph.flowchart.decision;whiteSpace=wrap;fillColor=#f5f5f5;gradientColor=#b3b3b3;strokeColor=#666666;" vertex="1" parent="1">
          <mxGeometry x="316" y="565" width="186" height="143" as="geometry" />
        </mxCell>
        <mxCell id="1eAoLEV-bFRT9HMZgJqJ-9" value="" style="edgeStyle=orthogonalEdgeStyle;rounded=0;orthogonalLoop=1;jettySize=auto;html=1;" edge="1" parent="1" source="1eAoLEV-bFRT9HMZgJqJ-10" target="1eAoLEV-bFRT9HMZgJqJ-13">
          <mxGeometry relative="1" as="geometry">
            <Array as="points">
              <mxPoint x="520" y="805" />
            </Array>
          </mxGeometry>
        </mxCell>
        <mxCell id="1eAoLEV-bFRT9HMZgJqJ-10" value="&lt;font face=&quot;Comic Sans MS&quot;&gt;&lt;span style=&quot;font-size: 16px;&quot;&gt;&lt;b&gt;pode dirigir&lt;/b&gt;&lt;/span&gt;&lt;/font&gt;" style="strokeWidth=2;html=1;shape=mxgraph.flowchart.display;whiteSpace=wrap;fillColor=#e6d0de;gradientColor=#d5739d;strokeColor=#996185;" vertex="1" parent="1">
          <mxGeometry x="512" y="718" width="150" height="80" as="geometry" />
        </mxCell>
        <mxCell id="1eAoLEV-bFRT9HMZgJqJ-11" value="" style="edgeStyle=orthogonalEdgeStyle;rounded=0;orthogonalLoop=1;jettySize=auto;html=1;" edge="1" parent="1" source="1eAoLEV-bFRT9HMZgJqJ-12" target="1eAoLEV-bFRT9HMZgJqJ-13">
          <mxGeometry relative="1" as="geometry">
            <Array as="points">
              <mxPoint x="310" y="805" />
            </Array>
          </mxGeometry>
        </mxCell>
        <mxCell id="1eAoLEV-bFRT9HMZgJqJ-12" value="&lt;font face=&quot;Comic Sans MS&quot;&gt;&lt;span style=&quot;font-size: 16px;&quot;&gt;&lt;b&gt;ainda não pode dirigir&lt;/b&gt;&lt;/span&gt;&lt;/font&gt;" style="strokeWidth=2;html=1;shape=mxgraph.flowchart.display;whiteSpace=wrap;fillColor=#e6d0de;gradientColor=#d5739d;strokeColor=#996185;" vertex="1" parent="1">
          <mxGeometry x="165" y="718" width="150" height="80" as="geometry" />
        </mxCell>
        <mxCell id="1eAoLEV-bFRT9HMZgJqJ-13" value="&lt;b&gt;&lt;font style=&quot;font-size: 16px;&quot; face=&quot;Comic Sans MS&quot;&gt;fim&lt;/font&gt;&lt;/b&gt;" style="strokeWidth=2;html=1;shape=mxgraph.flowchart.terminator;whiteSpace=wrap;fillColor=#f8cecc;gradientColor=#ea6b66;strokeColor=#b85450;" vertex="1" parent="1">
          <mxGeometry x="345" y="775" width="140" height="60" as="geometry" />
        </mxCell>
      </root>
    </mxGraphModel>
  </diagram>
  <diagram id="JGaDa5whFqexiaJC0dBl" name=".3">
    <mxGraphModel dx="1737" dy="955" grid="1" gridSize="10" guides="1" tooltips="1" connect="1" arrows="1" fold="1" page="1" pageScale="1" pageWidth="827" pageHeight="1169" math="0" shadow="0">
      <root>
        <mxCell id="0" />
        <mxCell id="1" parent="0" />
        <mxCell id="b6q5lAml7bvL3mps3V7t-1" value="" style="edgeStyle=orthogonalEdgeStyle;rounded=0;orthogonalLoop=1;jettySize=auto;html=1;strokeColor=#000000;" edge="1" parent="1" target="b6q5lAml7bvL3mps3V7t-4">
          <mxGeometry relative="1" as="geometry">
            <mxPoint x="440" y="329" as="sourcePoint" />
          </mxGeometry>
        </mxCell>
        <mxCell id="b6q5lAml7bvL3mps3V7t-2" value="&lt;b&gt;&lt;font face=&quot;Comic Sans MS&quot;&gt;início&lt;/font&gt;&lt;/b&gt;" style="strokeWidth=2;html=1;shape=mxgraph.flowchart.start_1;whiteSpace=wrap;fontSize=22;fillColor=#ffcccc;strokeColor=#000000;" vertex="1" parent="1">
          <mxGeometry x="365" y="234" width="150" height="100" as="geometry" />
        </mxCell>
        <mxCell id="qmJZeMlgsDyB0-wCQ8Uc-1" value="" style="edgeStyle=orthogonalEdgeStyle;rounded=0;orthogonalLoop=1;jettySize=auto;html=1;" edge="1" parent="1" source="b6q5lAml7bvL3mps3V7t-4" target="b6q5lAml7bvL3mps3V7t-13">
          <mxGeometry relative="1" as="geometry" />
        </mxCell>
        <mxCell id="b6q5lAml7bvL3mps3V7t-4" value="&lt;font style=&quot;font-size: 15px;&quot;&gt;meça a temperatura de um líquido&lt;/font&gt;" style="shape=parallelogram;perimeter=parallelogramPerimeter;whiteSpace=wrap;html=1;fixedSize=1;strokeWidth=2;fontStyle=1;fontFamily=Comic Sans MS;fontSize=16;fillColor=#fad7ac;strokeColor=#000000;" vertex="1" parent="1">
          <mxGeometry x="355" y="369" width="170" height="80" as="geometry" />
        </mxCell>
        <mxCell id="b6q5lAml7bvL3mps3V7t-9" value="" style="edgeStyle=orthogonalEdgeStyle;rounded=0;orthogonalLoop=1;jettySize=auto;html=1;" edge="1" parent="1" source="b6q5lAml7bvL3mps3V7t-13" target="b6q5lAml7bvL3mps3V7t-15">
          <mxGeometry relative="1" as="geometry" />
        </mxCell>
        <mxCell id="b6q5lAml7bvL3mps3V7t-10" value="SIM" style="edgeLabel;html=1;align=center;verticalAlign=middle;resizable=0;points=[];" vertex="1" connectable="0" parent="b6q5lAml7bvL3mps3V7t-9">
          <mxGeometry x="-0.5839" y="-2" relative="1" as="geometry">
            <mxPoint as="offset" />
          </mxGeometry>
        </mxCell>
        <mxCell id="qmJZeMlgsDyB0-wCQ8Uc-5" value="NÃO" style="edgeStyle=orthogonalEdgeStyle;rounded=0;orthogonalLoop=1;jettySize=auto;html=1;" edge="1" parent="1" source="b6q5lAml7bvL3mps3V7t-13" target="qmJZeMlgsDyB0-wCQ8Uc-4">
          <mxGeometry relative="1" as="geometry" />
        </mxCell>
        <mxCell id="b6q5lAml7bvL3mps3V7t-13" value="&lt;font face=&quot;Comic Sans MS&quot;&gt;&lt;span style=&quot;font-size: 15px;&quot;&gt;&lt;b&gt;a temperatura é menor do que 0°c?&lt;/b&gt;&lt;/span&gt;&lt;/font&gt;" style="strokeWidth=2;html=1;shape=mxgraph.flowchart.decision;whiteSpace=wrap;fillColor=#f5f5f5;gradientColor=#b3b3b3;strokeColor=#666666;" vertex="1" parent="1">
          <mxGeometry x="345.75" y="496" width="188.5" height="115" as="geometry" />
        </mxCell>
        <mxCell id="qmJZeMlgsDyB0-wCQ8Uc-11" value="" style="edgeStyle=orthogonalEdgeStyle;rounded=0;orthogonalLoop=1;jettySize=auto;html=1;" edge="1" parent="1" source="b6q5lAml7bvL3mps3V7t-15" target="b6q5lAml7bvL3mps3V7t-18">
          <mxGeometry relative="1" as="geometry" />
        </mxCell>
        <mxCell id="b6q5lAml7bvL3mps3V7t-15" value="&lt;font face=&quot;Comic Sans MS&quot;&gt;&lt;span style=&quot;font-size: 16px;&quot;&gt;&lt;b&gt;estado sólido&lt;/b&gt;&lt;/span&gt;&lt;/font&gt;" style="strokeWidth=2;html=1;shape=mxgraph.flowchart.display;whiteSpace=wrap;fillColor=#e6d0de;gradientColor=#d5739d;strokeColor=#996185;" vertex="1" parent="1">
          <mxGeometry x="536" y="664" width="150" height="82" as="geometry" />
        </mxCell>
        <mxCell id="b6q5lAml7bvL3mps3V7t-18" value="&lt;b&gt;&lt;font style=&quot;font-size: 16px;&quot; face=&quot;Comic Sans MS&quot;&gt;fim&lt;/font&gt;&lt;/b&gt;" style="strokeWidth=2;html=1;shape=mxgraph.flowchart.terminator;whiteSpace=wrap;fillColor=#f8cecc;gradientColor=#ea6b66;strokeColor=#b85450;" vertex="1" parent="1">
          <mxGeometry x="502" y="876" width="140" height="60" as="geometry" />
        </mxCell>
        <mxCell id="qmJZeMlgsDyB0-wCQ8Uc-7" value="" style="edgeStyle=orthogonalEdgeStyle;rounded=0;orthogonalLoop=1;jettySize=auto;html=1;" edge="1" parent="1" source="qmJZeMlgsDyB0-wCQ8Uc-4" target="qmJZeMlgsDyB0-wCQ8Uc-6">
          <mxGeometry relative="1" as="geometry" />
        </mxCell>
        <mxCell id="qmJZeMlgsDyB0-wCQ8Uc-10" value="SIM" style="edgeStyle=orthogonalEdgeStyle;rounded=0;orthogonalLoop=1;jettySize=auto;html=1;" edge="1" parent="1" source="qmJZeMlgsDyB0-wCQ8Uc-4" target="qmJZeMlgsDyB0-wCQ8Uc-8">
          <mxGeometry relative="1" as="geometry" />
        </mxCell>
        <mxCell id="qmJZeMlgsDyB0-wCQ8Uc-4" value="&lt;font face=&quot;Comic Sans MS&quot;&gt;&lt;span style=&quot;font-size: 15px;&quot;&gt;&lt;b&gt;a temperatura é maior do que 100°c?&lt;/b&gt;&lt;/span&gt;&lt;/font&gt;" style="strokeWidth=2;html=1;shape=mxgraph.flowchart.decision;whiteSpace=wrap;fillColor=#f5f5f5;gradientColor=#b3b3b3;strokeColor=#666666;" vertex="1" parent="1">
          <mxGeometry x="142" y="626" width="188.5" height="135" as="geometry" />
        </mxCell>
        <mxCell id="qmJZeMlgsDyB0-wCQ8Uc-9" value="NÃO" style="edgeStyle=orthogonalEdgeStyle;rounded=0;orthogonalLoop=1;jettySize=auto;html=1;" edge="1" parent="1" source="qmJZeMlgsDyB0-wCQ8Uc-6" target="qmJZeMlgsDyB0-wCQ8Uc-4">
          <mxGeometry relative="1" as="geometry" />
        </mxCell>
        <mxCell id="qmJZeMlgsDyB0-wCQ8Uc-14" value="" style="edgeStyle=orthogonalEdgeStyle;rounded=0;orthogonalLoop=1;jettySize=auto;html=1;" edge="1" parent="1" source="qmJZeMlgsDyB0-wCQ8Uc-6" target="b6q5lAml7bvL3mps3V7t-18">
          <mxGeometry relative="1" as="geometry" />
        </mxCell>
        <mxCell id="qmJZeMlgsDyB0-wCQ8Uc-6" value="&lt;font face=&quot;Comic Sans MS&quot;&gt;&lt;span style=&quot;font-size: 16px;&quot;&gt;&lt;b&gt;estado líquido&lt;/b&gt;&lt;/span&gt;&lt;/font&gt;" style="strokeWidth=2;html=1;shape=mxgraph.flowchart.display;whiteSpace=wrap;fillColor=#e6d0de;gradientColor=#d5739d;strokeColor=#996185;" vertex="1" parent="1">
          <mxGeometry x="161.25" y="826" width="150" height="82" as="geometry" />
        </mxCell>
        <mxCell id="qmJZeMlgsDyB0-wCQ8Uc-12" value="" style="edgeStyle=orthogonalEdgeStyle;rounded=0;orthogonalLoop=1;jettySize=auto;html=1;" edge="1" parent="1" source="qmJZeMlgsDyB0-wCQ8Uc-8" target="b6q5lAml7bvL3mps3V7t-18">
          <mxGeometry relative="1" as="geometry" />
        </mxCell>
        <mxCell id="qmJZeMlgsDyB0-wCQ8Uc-8" value="&lt;font face=&quot;Comic Sans MS&quot;&gt;&lt;span style=&quot;font-size: 16px;&quot;&gt;&lt;b&gt;estado gasoso&lt;/b&gt;&lt;/span&gt;&lt;/font&gt;" style="strokeWidth=2;html=1;shape=mxgraph.flowchart.display;whiteSpace=wrap;fillColor=#e6d0de;gradientColor=#d5739d;strokeColor=#996185;" vertex="1" parent="1">
          <mxGeometry x="365" y="726" width="150" height="82" as="geometry" />
        </mxCell>
      </root>
    </mxGraphModel>
  </diagram>
  <diagram id="atl2BOojPoj8bSutKu1D" name=".4">
    <mxGraphModel dx="1737" dy="955" grid="1" gridSize="10" guides="1" tooltips="1" connect="1" arrows="1" fold="1" page="1" pageScale="1" pageWidth="827" pageHeight="1169" math="0" shadow="0">
      <root>
        <mxCell id="0" />
        <mxCell id="1" parent="0" />
        <mxCell id="lQkLvQuQ-njSUZfl81U6-1" value="" style="edgeStyle=orthogonalEdgeStyle;rounded=0;orthogonalLoop=1;jettySize=auto;html=1;strokeColor=#000000;" edge="1" parent="1" target="lQkLvQuQ-njSUZfl81U6-4">
          <mxGeometry relative="1" as="geometry">
            <mxPoint x="440" y="285" as="sourcePoint" />
          </mxGeometry>
        </mxCell>
        <mxCell id="lQkLvQuQ-njSUZfl81U6-2" value="&lt;b&gt;&lt;font face=&quot;Comic Sans MS&quot;&gt;início&lt;/font&gt;&lt;/b&gt;" style="strokeWidth=2;html=1;shape=mxgraph.flowchart.start_1;whiteSpace=wrap;fontSize=22;fillColor=#ffcccc;strokeColor=#000000;" vertex="1" parent="1">
          <mxGeometry x="365" y="190" width="150" height="100" as="geometry" />
        </mxCell>
        <mxCell id="lQkLvQuQ-njSUZfl81U6-3" value="" style="edgeStyle=orthogonalEdgeStyle;rounded=0;orthogonalLoop=1;jettySize=auto;html=1;" edge="1" parent="1" source="lQkLvQuQ-njSUZfl81U6-4" target="lQkLvQuQ-njSUZfl81U6-8">
          <mxGeometry relative="1" as="geometry" />
        </mxCell>
        <mxCell id="lQkLvQuQ-njSUZfl81U6-4" value="&lt;font&gt;receba a idade de uma pessoa&lt;/font&gt;" style="shape=parallelogram;perimeter=parallelogramPerimeter;whiteSpace=wrap;html=1;fixedSize=1;strokeWidth=2;fontStyle=1;fontFamily=Comic Sans MS;fontSize=16;fillColor=#fad7ac;strokeColor=#000000;" vertex="1" parent="1">
          <mxGeometry x="355" y="325" width="170" height="80" as="geometry" />
        </mxCell>
        <mxCell id="lQkLvQuQ-njSUZfl81U6-5" value="" style="edgeStyle=orthogonalEdgeStyle;rounded=0;orthogonalLoop=1;jettySize=auto;html=1;" edge="1" parent="1" source="lQkLvQuQ-njSUZfl81U6-8" target="lQkLvQuQ-njSUZfl81U6-10">
          <mxGeometry relative="1" as="geometry" />
        </mxCell>
        <mxCell id="lQkLvQuQ-njSUZfl81U6-6" value="SIM" style="edgeLabel;html=1;align=center;verticalAlign=middle;resizable=0;points=[];" vertex="1" connectable="0" parent="lQkLvQuQ-njSUZfl81U6-5">
          <mxGeometry x="-0.5839" y="-2" relative="1" as="geometry">
            <mxPoint as="offset" />
          </mxGeometry>
        </mxCell>
        <mxCell id="lQkLvQuQ-njSUZfl81U6-7" value="NÃO" style="edgeStyle=orthogonalEdgeStyle;rounded=0;orthogonalLoop=1;jettySize=auto;html=1;" edge="1" parent="1" source="lQkLvQuQ-njSUZfl81U6-8" target="lQkLvQuQ-njSUZfl81U6-14">
          <mxGeometry relative="1" as="geometry" />
        </mxCell>
        <mxCell id="lQkLvQuQ-njSUZfl81U6-8" value="&lt;font style=&quot;font-size: 14px;&quot; face=&quot;Comic Sans MS&quot;&gt;&lt;b style=&quot;&quot;&gt;ela possui idade entre 18 e 70 anos?&lt;/b&gt;&lt;/font&gt;" style="strokeWidth=2;html=1;shape=mxgraph.flowchart.decision;whiteSpace=wrap;fillColor=#f5f5f5;gradientColor=#b3b3b3;strokeColor=#666666;align=center;" vertex="1" parent="1">
          <mxGeometry x="340" y="420" width="194.25" height="130" as="geometry" />
        </mxCell>
        <mxCell id="lQkLvQuQ-njSUZfl81U6-9" value="" style="edgeStyle=orthogonalEdgeStyle;rounded=0;orthogonalLoop=1;jettySize=auto;html=1;" edge="1" parent="1" source="lQkLvQuQ-njSUZfl81U6-10" target="lQkLvQuQ-njSUZfl81U6-11">
          <mxGeometry relative="1" as="geometry" />
        </mxCell>
        <mxCell id="lQkLvQuQ-njSUZfl81U6-10" value="&lt;font face=&quot;Comic Sans MS&quot;&gt;&lt;span style=&quot;font-size: 16px;&quot;&gt;&lt;b&gt;voto obrigatório&lt;/b&gt;&lt;/span&gt;&lt;/font&gt;" style="strokeWidth=2;html=1;shape=mxgraph.flowchart.display;whiteSpace=wrap;fillColor=#e6d0de;gradientColor=#d5739d;strokeColor=#996185;" vertex="1" parent="1">
          <mxGeometry x="536" y="620" width="150" height="82" as="geometry" />
        </mxCell>
        <mxCell id="lQkLvQuQ-njSUZfl81U6-11" value="&lt;b&gt;&lt;font style=&quot;font-size: 16px;&quot; face=&quot;Comic Sans MS&quot;&gt;fim&lt;/font&gt;&lt;/b&gt;" style="strokeWidth=2;html=1;shape=mxgraph.flowchart.terminator;whiteSpace=wrap;fillColor=#f8cecc;gradientColor=#ea6b66;strokeColor=#b85450;" vertex="1" parent="1">
          <mxGeometry x="502" y="832" width="140" height="60" as="geometry" />
        </mxCell>
        <mxCell id="lQkLvQuQ-njSUZfl81U6-12" value="" style="edgeStyle=orthogonalEdgeStyle;rounded=0;orthogonalLoop=1;jettySize=auto;html=1;" edge="1" parent="1" source="lQkLvQuQ-njSUZfl81U6-14" target="lQkLvQuQ-njSUZfl81U6-17">
          <mxGeometry relative="1" as="geometry" />
        </mxCell>
        <mxCell id="lQkLvQuQ-njSUZfl81U6-13" value="SIM" style="edgeStyle=orthogonalEdgeStyle;rounded=0;orthogonalLoop=1;jettySize=auto;html=1;" edge="1" parent="1" source="lQkLvQuQ-njSUZfl81U6-14" target="lQkLvQuQ-njSUZfl81U6-19">
          <mxGeometry relative="1" as="geometry" />
        </mxCell>
        <mxCell id="lQkLvQuQ-njSUZfl81U6-14" value="&lt;font face=&quot;Comic Sans MS&quot;&gt;&lt;b style=&quot;&quot;&gt;possui idade entre 16 e 17 anos ou acima de 70?&lt;/b&gt;&lt;/font&gt;" style="strokeWidth=2;html=1;shape=mxgraph.flowchart.decision;whiteSpace=wrap;fillColor=#f5f5f5;gradientColor=#b3b3b3;strokeColor=#666666;" vertex="1" parent="1">
          <mxGeometry x="142" y="582" width="188.5" height="135" as="geometry" />
        </mxCell>
        <mxCell id="lQkLvQuQ-njSUZfl81U6-15" value="NÃO" style="edgeStyle=orthogonalEdgeStyle;rounded=0;orthogonalLoop=1;jettySize=auto;html=1;" edge="1" parent="1" source="lQkLvQuQ-njSUZfl81U6-17" target="lQkLvQuQ-njSUZfl81U6-14">
          <mxGeometry relative="1" as="geometry" />
        </mxCell>
        <mxCell id="lQkLvQuQ-njSUZfl81U6-16" value="" style="edgeStyle=orthogonalEdgeStyle;rounded=0;orthogonalLoop=1;jettySize=auto;html=1;" edge="1" parent="1" source="lQkLvQuQ-njSUZfl81U6-17" target="lQkLvQuQ-njSUZfl81U6-11">
          <mxGeometry relative="1" as="geometry" />
        </mxCell>
        <mxCell id="lQkLvQuQ-njSUZfl81U6-17" value="&lt;b&gt;&lt;font style=&quot;font-size: 16px;&quot; face=&quot;Comic Sans MS&quot;&gt;não pode votar&lt;/font&gt;&lt;/b&gt;" style="strokeWidth=2;html=1;shape=mxgraph.flowchart.display;whiteSpace=wrap;fillColor=#e6d0de;gradientColor=#d5739d;strokeColor=#996185;" vertex="1" parent="1">
          <mxGeometry x="161.25" y="782" width="150" height="82" as="geometry" />
        </mxCell>
        <mxCell id="lQkLvQuQ-njSUZfl81U6-18" value="" style="edgeStyle=orthogonalEdgeStyle;rounded=0;orthogonalLoop=1;jettySize=auto;html=1;" edge="1" parent="1" source="lQkLvQuQ-njSUZfl81U6-19" target="lQkLvQuQ-njSUZfl81U6-11">
          <mxGeometry relative="1" as="geometry" />
        </mxCell>
        <mxCell id="lQkLvQuQ-njSUZfl81U6-19" value="&lt;font face=&quot;Comic Sans MS&quot;&gt;&lt;span style=&quot;font-size: 16px;&quot;&gt;&lt;b&gt;voto facultativo&lt;/b&gt;&lt;/span&gt;&lt;/font&gt;" style="strokeWidth=2;html=1;shape=mxgraph.flowchart.display;whiteSpace=wrap;fillColor=#e6d0de;gradientColor=#d5739d;strokeColor=#996185;" vertex="1" parent="1">
          <mxGeometry x="365" y="682" width="150" height="82" as="geometry" />
        </mxCell>
      </root>
    </mxGraphModel>
  </diagram>
  <diagram id="fjetp9u3OWthmMbsS0eK" name="Looping">
    <mxGraphModel dx="1003" dy="562" grid="1" gridSize="10" guides="1" tooltips="1" connect="1" arrows="1" fold="1" page="1" pageScale="1" pageWidth="827" pageHeight="1169" math="0" shadow="0">
      <root>
        <mxCell id="0" />
        <mxCell id="1" parent="0" />
        <mxCell id="q-9BzfDTXblya_Y5CFpL-1" value="" style="edgeStyle=orthogonalEdgeStyle;rounded=0;orthogonalLoop=1;jettySize=auto;html=1;strokeColor=#000000;" edge="1" parent="1" target="q-9BzfDTXblya_Y5CFpL-4">
          <mxGeometry relative="1" as="geometry">
            <mxPoint x="414" y="335" as="sourcePoint" />
          </mxGeometry>
        </mxCell>
        <mxCell id="q-9BzfDTXblya_Y5CFpL-2" value="&lt;i&gt;&lt;font style=&quot;font-size: 28px;&quot;&gt;início&lt;/font&gt;&lt;/i&gt;" style="strokeWidth=2;html=1;shape=mxgraph.flowchart.start_1;whiteSpace=wrap;fillColor=#ffcccc;strokeColor=#000000;fontFamily=Comic Sans MS;fontColor=default;labelBackgroundColor=none;fontStyle=1;" vertex="1" parent="1">
          <mxGeometry x="339" y="245" width="150" height="100" as="geometry" />
        </mxCell>
        <mxCell id="q-9BzfDTXblya_Y5CFpL-13" value="" style="edgeStyle=orthogonalEdgeStyle;rounded=0;orthogonalLoop=1;jettySize=auto;html=1;strokeColor=#000000;" edge="1" parent="1" source="q-9BzfDTXblya_Y5CFpL-4" target="q-9BzfDTXblya_Y5CFpL-12">
          <mxGeometry relative="1" as="geometry" />
        </mxCell>
        <mxCell id="q-9BzfDTXblya_Y5CFpL-4" value="&lt;span style=&quot;font-size: 16px;&quot;&gt;definir número inicial&lt;/span&gt;" style="shape=parallelogram;perimeter=parallelogramPerimeter;whiteSpace=wrap;html=1;fixedSize=1;fontFamily=Comic Sans MS;fillColor=#ffcc99;strokeColor=#000000;strokeWidth=2;labelBackgroundColor=none;fontStyle=1;" vertex="1" parent="1">
          <mxGeometry x="339" y="375" width="150" height="70" as="geometry" />
        </mxCell>
        <mxCell id="uiYn8ztFE2fIGR1M5za_-5" value="SIM" style="edgeStyle=orthogonalEdgeStyle;rounded=0;orthogonalLoop=1;jettySize=auto;html=1;strokeColor=#000000;" edge="1" parent="1" source="q-9BzfDTXblya_Y5CFpL-12" target="uiYn8ztFE2fIGR1M5za_-1">
          <mxGeometry relative="1" as="geometry" />
        </mxCell>
        <mxCell id="rNjM90Dqs_aXH5hQL8y4-9" value="" style="edgeStyle=orthogonalEdgeStyle;rounded=0;orthogonalLoop=1;jettySize=auto;html=1;" edge="1" parent="1" source="q-9BzfDTXblya_Y5CFpL-12" target="rNjM90Dqs_aXH5hQL8y4-1">
          <mxGeometry relative="1" as="geometry">
            <Array as="points">
              <mxPoint x="710" y="550" />
              <mxPoint x="710" y="970" />
            </Array>
          </mxGeometry>
        </mxCell>
        <mxCell id="q-9BzfDTXblya_Y5CFpL-12" value="&lt;b&gt;&lt;font face=&quot;Comic Sans MS&quot;&gt;o número é igual a 20?&lt;/font&gt;&lt;/b&gt;" style="strokeWidth=2;html=1;shape=mxgraph.flowchart.decision;whiteSpace=wrap;fillColor=#f5f5f5;strokeColor=#000000;gradientColor=#b3b3b3;" vertex="1" parent="1">
          <mxGeometry x="344" y="490" width="140" height="120" as="geometry" />
        </mxCell>
        <mxCell id="l-AlSU0FWaHkR-i9kN1h-1" value="" style="edgeStyle=orthogonalEdgeStyle;rounded=0;orthogonalLoop=1;jettySize=auto;html=1;strokeColor=#000000;" edge="1" parent="1" source="uiYn8ztFE2fIGR1M5za_-1" target="uiYn8ztFE2fIGR1M5za_-6">
          <mxGeometry relative="1" as="geometry" />
        </mxCell>
        <mxCell id="uiYn8ztFE2fIGR1M5za_-1" value="&lt;font face=&quot;Comic Sans MS&quot;&gt;&lt;span style=&quot;font-size: 16px;&quot;&gt;&lt;b&gt;dizer o número atual&lt;/b&gt;&lt;/span&gt;&lt;/font&gt;" style="strokeWidth=2;html=1;shape=mxgraph.flowchart.display;whiteSpace=wrap;fillColor=#e6d0de;gradientColor=#d5739d;strokeColor=#000000;" vertex="1" parent="1">
          <mxGeometry x="339" y="650" width="150" height="82" as="geometry" />
        </mxCell>
        <mxCell id="rNjM90Dqs_aXH5hQL8y4-8" value="" style="edgeStyle=orthogonalEdgeStyle;rounded=0;orthogonalLoop=1;jettySize=auto;html=1;entryX=0;entryY=0.5;entryDx=0;entryDy=0;entryPerimeter=0;" edge="1" parent="1" source="uiYn8ztFE2fIGR1M5za_-6" target="q-9BzfDTXblya_Y5CFpL-12">
          <mxGeometry relative="1" as="geometry">
            <Array as="points">
              <mxPoint x="250" y="820" />
              <mxPoint x="250" y="550" />
            </Array>
          </mxGeometry>
        </mxCell>
        <mxCell id="uiYn8ztFE2fIGR1M5za_-6" value="&lt;b&gt;&lt;font style=&quot;font-size: 15px;&quot; face=&quot;Comic Sans MS&quot;&gt;incrementar o número em +2&lt;/font&gt;&lt;/b&gt;" style="rounded=1;whiteSpace=wrap;html=1;absoluteArcSize=1;arcSize=14;strokeWidth=2;fillColor=#fff2cc;gradientColor=#ffd966;strokeColor=#000000;" vertex="1" parent="1">
          <mxGeometry x="349" y="770" width="130" height="100" as="geometry" />
        </mxCell>
        <mxCell id="rNjM90Dqs_aXH5hQL8y4-1" value="&lt;b&gt;&lt;font style=&quot;font-size: 16px;&quot; face=&quot;Comic Sans MS&quot;&gt;fim&lt;/font&gt;&lt;/b&gt;" style="strokeWidth=2;html=1;shape=mxgraph.flowchart.terminator;whiteSpace=wrap;fillColor=#f8cecc;gradientColor=#ea6b66;strokeColor=#b85450;" vertex="1" parent="1">
          <mxGeometry x="470" y="910" width="140" height="60" as="geometry" />
        </mxCell>
      </root>
    </mxGraphModel>
  </diagram>
</mxfile>
